# Blender 4.3.0
# www.blender.org
o Cylinder
v 0.000000 0.000000 -0.120000
v 0.000000 0.400000 -0.160000
v 0.060000 0.000000 -0.103923
v 0.080000 0.400000 -0.138564
v 0.103923 0.000000 -0.060000
v 0.138564 0.400000 -0.080000
v 0.120000 0.000000 0.000000
v 0.160000 0.400000 0.000000
v 0.103923 0.000000 0.060000
v 0.138564 0.400000 0.080000
v 0.060000 0.000000 0.103923
v 0.080000 0.400000 0.138564
v 0.000000 0.000000 0.120000
v 0.000000 0.400000 0.160000
v -0.060000 0.000000 0.103923
v -0.080000 0.400000 0.138564
v -0.103923 0.000000 0.060000
v -0.138564 0.400000 0.080000
v -0.120000 0.000000 0.000000
v -0.160000 0.400000 0.000000
v -0.103923 0.000000 -0.060000
v -0.138564 0.400000 -0.080000
v -0.060000 0.000000 -0.103923
v -0.080000 0.400000 -0.138564
v 0.018745 0.019907 -0.113308
v 0.018745 0.380093 -0.148246
v 0.057889 0.380093 -0.137758
v 0.040420 0.019907 -0.107500
v 0.072888 0.019907 -0.088755
v 0.090357 0.380093 -0.119012
v 0.119012 0.380093 -0.090357
v 0.088755 0.019907 -0.072888
v 0.107500 0.019907 -0.040420
v 0.137758 0.380093 -0.057889
v 0.148246 0.380093 -0.018745
v 0.113308 0.019907 -0.018745
v 0.113308 0.019907 0.018745
v 0.148246 0.380093 0.018745
v 0.137758 0.380093 0.057889
v 0.107500 0.019907 0.040420
v 0.088755 0.019907 0.072888
v 0.119012 0.380093 0.090357
v 0.090357 0.380093 0.119012
v 0.072888 0.019907 0.088755
v 0.040420 0.019907 0.107500
v 0.057889 0.380093 0.137758
v 0.018745 0.380093 0.148246
v 0.018745 0.019907 0.113308
v -0.018745 0.019907 0.113308
v -0.018745 0.380093 0.148246
v -0.057889 0.380093 0.137758
v -0.040420 0.019907 0.107500
v -0.072888 0.019907 0.088755
v -0.090357 0.380093 0.119012
v -0.119012 0.380093 0.090357
v -0.088755 0.019907 0.072888
v -0.107500 0.019907 0.040420
v -0.137758 0.380093 0.057889
v -0.148246 0.380093 0.018745
v -0.113308 0.019907 0.018745
v -0.113308 0.019907 -0.018745
v -0.148246 0.380093 -0.018745
v -0.137758 0.380093 -0.057889
v -0.107500 0.019907 -0.040420
v -0.088755 0.019907 -0.072888
v -0.119012 0.380093 -0.090357
v -0.090357 0.380093 -0.119012
v -0.072888 0.019907 -0.088755
v -0.040420 0.019907 -0.107500
v -0.057889 0.380093 -0.137758
v -0.018745 0.380093 -0.148246
v -0.018745 0.019907 -0.113308
v 0.073530 0.400000 -0.127358
v 0.000000 0.400000 -0.147061
v -0.073530 0.400000 -0.127358
v -0.127358 0.400000 -0.073530
v -0.147061 0.400000 0.000000
v -0.127358 0.400000 0.073530
v -0.073530 0.400000 0.127358
v 0.000000 0.400000 0.147061
v 0.073530 0.400000 0.127358
v 0.127358 0.400000 0.073530
v 0.147061 0.400000 0.000000
v 0.127358 0.400000 -0.073530
v 0.051471 0.020000 -0.089151
v -0.000000 0.020000 -0.102943
v 0.089151 0.020000 -0.051471
v -0.051471 0.020000 -0.089151
v -0.089151 0.020000 -0.051471
v -0.102943 0.020000 -0.000000
v -0.089151 0.020000 0.051471
v -0.051471 0.020000 0.089151
v -0.000000 0.020000 0.102943
v 0.051471 0.020000 0.089151
v 0.089151 0.020000 0.051471
v 0.102943 0.020000 -0.000000
v 0.000000 0.020000 -0.063415
v 0.000000 0.020000 0.000000
v 0.000000 0.020000 0.063415
v 0.069282 0.000000 0.000000
v 0.000000 0.000000 0.000000
v -0.069282 0.000000 -0.000000
vn 0.3278 -0.0263 -0.9444
vn 0.3250 -0.1751 -0.9294
vn 0.1832 -0.1751 -0.9674
vn 0.1884 -0.0263 -0.9817
vn 0.7560 -0.0263 -0.6540
vn 0.7462 -0.1751 -0.6423
vn 0.6423 -0.1751 -0.7462
vn 0.6540 -0.0263 -0.7560
vn 0.9817 -0.0263 -0.1884
vn 0.9674 -0.1751 -0.1832
vn 0.9294 -0.1751 -0.3250
vn 0.9444 -0.0263 -0.3278
vn 0.9444 -0.0263 0.3278
vn 0.9294 -0.1751 0.3250
vn 0.9674 -0.1751 0.1832
vn 0.9817 -0.0263 0.1884
vn 0.6540 -0.0263 0.7560
vn 0.6423 -0.1751 0.7462
vn 0.7462 -0.1751 0.6423
vn 0.7560 -0.0263 0.6540
vn 0.1884 -0.0263 0.9817
vn 0.1832 -0.1751 0.9674
vn 0.3250 -0.1751 0.9294
vn 0.3278 -0.0263 0.9444
vn -0.3278 -0.0263 0.9444
vn -0.3250 -0.1751 0.9294
vn -0.1832 -0.1751 0.9674
vn -0.1884 -0.0263 0.9817
vn -0.7560 -0.0263 0.6540
vn -0.7462 -0.1751 0.6423
vn -0.6423 -0.1751 0.7462
vn -0.6540 -0.0263 0.7560
vn -0.9817 -0.0263 0.1884
vn -0.9674 -0.1751 0.1832
vn -0.9294 -0.1751 0.3250
vn -0.9444 -0.0263 0.3278
vn -0.9444 -0.0263 -0.3278
vn -0.9294 -0.1751 -0.3250
vn -0.9674 -0.1751 -0.1832
vn -0.9817 -0.0263 -0.1884
vn 0.5142 0.8046 -0.2969
vn 0.2969 0.8046 -0.5142
vn 0.4967 0.1153 -0.8602
vn 0.8602 0.1153 -0.4967
vn -0.6540 -0.0263 -0.7560
vn -0.6423 -0.1751 -0.7462
vn -0.7462 -0.1751 -0.6423
vn -0.7560 -0.0263 -0.6540
vn -0.1884 -0.0263 -0.9817
vn -0.1832 -0.1751 -0.9674
vn -0.3250 -0.1751 -0.9294
vn -0.3278 -0.0263 -0.9444
vn -0.0000 -0.0059 -1.0000
vn -0.0000 0.5743 -0.8187
vn 0.4093 0.5743 -0.7090
vn 0.5000 -0.0059 -0.8660
vn 0.7090 0.5743 -0.4093
vn 0.8660 -0.0059 -0.5000
vn 0.8187 0.5743 -0.0000
vn 1.0000 -0.0059 -0.0000
vn 0.7090 0.5743 0.4093
vn 0.8660 -0.0059 0.5000
vn 0.4093 0.5743 0.7090
vn 0.5000 -0.0059 0.8660
vn -0.0000 0.5743 0.8187
vn -0.0000 -0.0059 1.0000
vn -0.4093 0.5743 0.7090
vn -0.5000 -0.0059 0.8660
vn -0.7090 0.5743 0.4093
vn -0.8660 -0.0059 0.5000
vn -0.8187 0.5743 -0.0000
vn -1.0000 -0.0059 -0.0000
vn -0.7090 0.5743 -0.4093
vn -0.8660 -0.0059 -0.5000
vn -0.4093 0.5743 -0.7090
vn -0.5000 -0.0059 -0.8660
vn -0.0000 0.8046 0.5938
vn -0.2969 0.8046 0.5142
vn 0.2969 0.8046 0.5142
vn 0.5142 0.8046 0.2969
vn 0.5938 0.8046 -0.0000
vn -0.0000 0.8046 -0.5938
vn -0.2969 0.8046 -0.5142
vn -0.5142 0.8046 -0.2969
vn -0.5938 0.8046 -0.0000
vn -0.5142 0.8046 0.2969
vn 0.8602 0.1153 0.4967
vn 0.4967 0.1153 0.8602
vn -0.9933 0.1153 -0.0000
vn -0.8602 0.1153 -0.4967
vn -0.0000 0.1153 0.9933
vn -0.4967 0.1153 0.8602
vn -0.0000 0.1153 -0.9933
vn 0.9933 0.1153 -0.0000
vn -0.8602 0.1153 0.4967
vn -0.4967 0.1153 -0.8602
vn -0.0000 1.0000 -0.0000
vn -0.0000 -1.0000 -0.0000
vt 0.345290 0.417365
vt 0.019115 0.418445
vt 0.019577 0.383440
vt 0.345639 0.396308
vt 0.346688 0.357826
vt 0.020684 0.346860
vt 0.022245 0.311792
vt 0.347666 0.336863
vt 0.349887 0.298599
vt 0.024524 0.275136
vt 0.027281 0.239960
vt 0.351502 0.277802
vt 0.355011 0.239894
vt 0.030860 0.203206
vt 0.035081 0.167924
vt 0.357251 0.219327
vt 0.362208 0.181886
vt 0.040114 0.131061
vt 0.045713 0.095650
vt 0.365393 0.161653
vt 0.371938 0.124817
vt 0.052402 0.058743
vt 0.059754 0.023282
vt 0.375977 0.104961
vt 0.375968 0.768390
vt 0.059920 0.850100
vt 0.052590 0.814641
vt 0.371948 0.748523
vt 0.365379 0.711688
vt 0.045871 0.777739
vt 0.040245 0.742335
vt 0.362284 0.691440
vt 0.357296 0.654003
vt 0.035198 0.705481
vt 0.031035 0.670195
vt 0.355040 0.633435
vt 0.351489 0.595523
vt 0.027458 0.633448
vt 0.024773 0.598279
vt 0.349839 0.574722
vt 0.448446 0.132105
vt 0.461240 0.066143
vt 0.794994 0.150071
vt 0.786145 0.198000
vt 0.347538 0.536445
vt 0.022497 0.561624
vt 0.020815 0.526571
vt 0.346712 0.515468
vt 0.345562 0.476981
vt 0.019708 0.489995
vt 0.019114 0.454996
vt 0.345342 0.455922
vt 0.362743 0.436640
vt 0.000168 0.436727
vt 0.001191 0.364487
vt 0.363586 0.377678
vt 0.004475 0.292108
vt 0.366137 0.318973
vt 0.010215 0.219490
vt 0.370544 0.260763
vt 0.018857 0.146611
vt 0.376865 0.203243
vt 0.030428 0.073454
vt 0.385670 0.146660
vt 0.045604 0.000168
vt 0.396883 0.091163
vt 0.396883 0.782182
vt 0.045794 0.873214
vt 0.030608 0.799937
vt 0.385663 0.726680
vt 0.018978 0.726794
vt 0.376920 0.670083
vt 0.010395 0.653918
vt 0.370551 0.612559
vt 0.004745 0.581313
vt 0.366040 0.554337
vt 0.001328 0.508958
vt 0.363551 0.495611
vt 0.400831 0.492787
vt 0.402430 0.422656
vt 0.413608 0.422710
vt 0.412491 0.492929
vt 0.401771 0.352479
vt 0.413191 0.352493
vt 0.400717 0.282325
vt 0.412381 0.282248
vt 0.400784 0.212202
vt 0.411963 0.211964
vt 0.398211 0.141976
vt 0.409667 0.141795
vt 0.398763 0.071042
vt 0.410324 0.072068
vt 0.415404 0.000168
vt 0.425692 0.005118
vt 0.415393 0.845132
vt 0.399102 0.774274
vt 0.410469 0.773220
vt 0.425692 0.840227
vt 0.397219 0.703367
vt 0.408867 0.703532
vt 0.399877 0.633134
vt 0.411057 0.633412
vt 0.400637 0.562953
vt 0.412057 0.563182
vt 0.427743 0.329419
vt 0.431960 0.263734
vt 0.774897 0.296245
vt 0.772094 0.346092
vt 0.446251 0.659072
vt 0.436696 0.592878
vt 0.778791 0.544941
vt 0.785480 0.593463
vt 0.426838 0.460878
vt 0.426028 0.395106
vt 0.771040 0.396111
vt 0.771738 0.446069
vt 0.477463 0.000168
vt 0.806233 0.103233
vt 0.438786 0.197975
vt 0.779526 0.246804
vt 0.430317 0.526797
vt 0.774273 0.495747
vt 0.476052 0.791223
vt 0.459257 0.725261
vt 0.794545 0.641133
vt 0.806233 0.687758
vt 0.658574 0.946290
vt 0.634637 0.904830
vt 0.709225 0.935925
vt 0.700034 0.970227
vt 0.634637 0.856956
vt 0.723971 0.880893
vt 0.658574 0.815496
vt 0.738717 0.825861
vt 0.700034 0.791559
vt 0.747908 0.791559
vt 0.789368 0.946290
vt 0.747908 0.970227
vt 0.813305 0.904830
vt 0.813305 0.856956
vt 0.789368 0.815496
vt 0.426028 0.867792
vt 0.453931 0.819462
vt 0.486151 0.851682
vt 0.426028 0.923599
vt 0.502261 0.791559
vt 0.558068 0.791559
vt 0.530164 0.895695
vt 0.453931 0.971929
vt 0.606398 0.819462
vt 0.574178 0.939709
vt 0.502261 0.999832
vt 0.634301 0.867792
vt 0.606398 0.971929
vt 0.558068 0.999832
vt 0.634301 0.923599
s 1
f 25/1/1 26/2/2 27/3/3 28/4/4
f 29/5/5 30/6/6 31/7/7 32/8/8
f 33/9/9 34/10/10 35/11/11 36/12/12
f 37/13/13 38/14/14 39/15/15 40/16/16
f 41/17/17 42/18/18 43/19/19 44/20/20
f 45/21/21 46/22/22 47/23/23 48/24/24
f 49/25/25 50/26/26 51/27/27 52/28/28
f 53/29/29 54/30/30 55/31/31 56/32/32
f 57/33/33 58/34/34 59/35/35 60/36/36
f 61/37/37 62/38/38 63/39/39 64/40/40
f 78/41/41 79/42/42 92/43/43 91/44/44
f 65/45/45 66/46/46 67/47/47 68/48/48
f 69/49/49 70/50/50 71/51/51 72/52/52
f 1/53/53 2/54/54 26/2/2 25/1/1
f 2/54/54 4/55/55 27/3/3 26/2/2
f 4/55/55 3/56/56 28/4/4 27/3/3
f 3/56/56 1/53/53 25/1/1 28/4/4
f 3/56/56 4/55/55 30/6/6 29/5/5
f 4/55/55 6/57/57 31/7/7 30/6/6
f 6/57/57 5/58/58 32/8/8 31/7/7
f 5/58/58 3/56/56 29/5/5 32/8/8
f 5/58/58 6/57/57 34/10/10 33/9/9
f 6/57/57 8/59/59 35/11/11 34/10/10
f 8/59/59 7/60/60 36/12/12 35/11/11
f 7/60/60 5/58/58 33/9/9 36/12/12
f 7/60/60 8/59/59 38/14/14 37/13/13
f 8/59/59 10/61/61 39/15/15 38/14/14
f 10/61/61 9/62/62 40/16/16 39/15/15
f 9/62/62 7/60/60 37/13/13 40/16/16
f 9/62/62 10/61/61 42/18/18 41/17/17
f 10/61/61 12/63/63 43/19/19 42/18/18
f 12/63/63 11/64/64 44/20/20 43/19/19
f 11/64/64 9/62/62 41/17/17 44/20/20
f 11/64/64 12/63/63 46/22/22 45/21/21
f 12/63/63 14/65/65 47/23/23 46/22/22
f 14/65/65 13/66/66 48/24/24 47/23/23
f 13/66/66 11/64/64 45/21/21 48/24/24
f 13/67/66 14/68/65 50/26/26 49/25/25
f 14/68/65 16/69/67 51/27/27 50/26/26
f 16/69/67 15/70/68 52/28/28 51/27/27
f 15/70/68 13/67/66 49/25/25 52/28/28
f 15/70/68 16/69/67 54/30/30 53/29/29
f 16/69/67 18/71/69 55/31/31 54/30/30
f 18/71/69 17/72/70 56/32/32 55/31/31
f 17/72/70 15/70/68 53/29/29 56/32/32
f 17/72/70 18/71/69 58/34/34 57/33/33
f 18/71/69 20/73/71 59/35/35 58/34/34
f 20/73/71 19/74/72 60/36/36 59/35/35
f 19/74/72 17/72/70 57/33/33 60/36/36
f 19/74/72 20/73/71 62/38/38 61/37/37
f 20/73/71 22/75/73 63/39/39 62/38/38
f 22/75/73 21/76/74 64/40/40 63/39/39
f 21/76/74 19/74/72 61/37/37 64/40/40
f 21/76/74 22/75/73 66/46/46 65/45/45
f 22/75/73 24/77/75 67/47/47 66/46/46
f 24/77/75 23/78/76 68/48/48 67/47/47
f 23/78/76 21/76/74 65/45/45 68/48/48
f 23/78/76 24/77/75 70/50/50 69/49/49
f 24/77/75 2/54/54 71/51/51 70/50/50
f 2/54/54 1/53/53 72/52/52 71/51/51
f 1/53/53 23/78/76 69/49/49 72/52/52
f 4/79/55 2/80/54 74/81/77 73/82/78
f 2/80/54 24/83/75 75/84/79 74/81/77
f 24/83/75 22/85/73 76/86/80 75/84/79
f 22/85/73 20/87/71 77/88/81 76/86/80
f 20/87/71 18/89/69 78/90/41 77/88/81
f 18/89/69 16/91/67 79/92/42 78/90/41
f 16/91/67 14/93/65 80/94/82 79/92/42
f 14/95/65 12/96/63 81/97/83 80/98/82
f 12/96/63 10/99/61 82/100/84 81/97/83
f 10/99/61 8/101/59 83/102/85 82/100/84
f 8/101/59 6/103/57 84/104/86 83/102/85
f 6/103/57 4/79/55 73/82/78 84/104/86
f 75/105/79 76/106/80 89/107/87 88/108/88
f 82/109/84 83/110/85 96/111/89 95/112/90
f 73/113/78 74/114/77 86/115/91 85/116/92
f 79/42/42 80/117/82 93/118/93 92/43/43
f 76/106/80 77/119/81 90/120/94 89/107/87
f 83/110/85 84/121/86 87/122/95 96/111/89
f 84/121/86 73/113/78 85/116/92 87/122/95
f 80/123/82 81/124/83 94/125/96 93/126/93
f 77/119/81 78/41/41 91/44/44 90/120/94
f 74/114/77 75/105/79 88/108/88 86/115/91
f 81/124/83 82/109/84 95/112/90 94/125/96
f 88/127/97 89/128/97 97/129/97 86/130/97
f 89/128/97 90/131/97 98/132/97 97/129/97
f 90/131/97 91/133/97 99/134/97 98/132/97
f 91/133/97 92/135/97 93/136/97 99/134/97
f 86/130/97 97/129/97 87/137/97 85/138/97
f 97/129/97 98/132/97 96/139/97 87/137/97
f 98/132/97 99/134/97 95/140/97 96/139/97
f 99/134/97 93/136/97 94/141/97 95/140/97
f 5/142/98 7/143/98 100/144/98 3/145/98
f 7/143/98 9/146/98 11/147/98 100/144/98
f 3/145/98 100/144/98 101/148/98 1/149/98
f 100/144/98 11/147/98 13/150/98 101/148/98
f 1/149/98 101/148/98 102/151/98 23/152/98
f 101/148/98 13/150/98 15/153/98 102/151/98
f 23/152/98 102/151/98 19/154/98 21/155/98
f 102/151/98 15/153/98 17/156/98 19/154/98
