# Blender 5.0.1
# www.blender.org
o Cube
v -0.020000 0.300000 1.000000
v 0.020000 0.300000 1.000000
v -0.020000 0.300000 -1.000000
v 0.020000 0.300000 -1.000000
v -0.020000 -0.300000 1.000000
v 0.020000 -0.300000 1.000000
v -0.020000 -0.300000 -1.000000
v 0.020000 -0.300000 -1.000000
v -0.020000 -0.240000 -1.000000
v -0.020000 0.240000 -1.000000
v 0.020000 0.240000 -1.000000
v 0.020000 -0.240000 -1.000000
v -0.020000 0.240000 1.000000
v -0.020000 -0.240000 1.000000
v 0.020000 -0.240000 1.000000
v 0.020000 0.240000 1.000000
v 0.044763 0.300000 1.000000
v 0.044763 0.300000 -1.000000
v 0.044763 -0.240000 -1.000000
v 0.044763 -0.300000 -1.000000
v 0.044763 -0.300000 1.000000
v 0.044763 0.240000 1.000000
v 0.044763 0.240000 -1.000000
v 0.044763 -0.240000 1.000000
vn -0.0000 1.0000 -0.0000
vn -0.0000 -0.0000 -1.0000
vn -0.0000 -1.0000 -0.0000
vn -0.0000 -0.0000 1.0000
vn -1.0000 -0.0000 -0.0000
vn 1.0000 -0.0000 -0.0000
vt 0.548445 0.002154
vt 0.568359 0.002154
vt 0.568359 0.997846
vt 0.548445 0.997846
vt 0.723179 0.270991
vt 0.743092 0.270991
vt 0.743092 0.300862
vt 0.723179 0.300862
vt 0.617238 0.997846
vt 0.597324 0.997846
vt 0.597324 0.002154
vt 0.617238 0.002154
vt 0.755421 0.335041
vt 0.735507 0.335041
vt 0.735507 0.305170
vt 0.755421 0.305170
vt 0.270991 0.002154
vt 0.300862 0.002154
vt 0.300862 0.997846
vt 0.270991 0.997846
vt 0.689905 0.997846
vt 0.689905 0.002154
vt 0.702233 0.002154
vt 0.702233 0.997846
vt 0.723179 0.335041
vt 0.723179 0.305170
vt 0.544136 0.997846
vt 0.305170 0.997846
vt 0.305170 0.002154
vt 0.544136 0.002154
vt 0.002154 0.002154
vt 0.032025 0.002154
vt 0.032025 0.997846
vt 0.002154 0.997846
vt 0.755421 0.603878
vt 0.735507 0.603878
vt 0.735507 0.574007
vt 0.755421 0.574007
vt 0.723179 0.002154
vt 0.743092 0.002154
vt 0.743092 0.032025
vt 0.723179 0.032025
vt 0.651417 0.997846
vt 0.621546 0.997846
vt 0.621546 0.002154
vt 0.651417 0.002154
vt 0.685596 0.997846
vt 0.655726 0.997846
vt 0.655726 0.002154
vt 0.685596 0.002154
vt 0.723179 0.603878
vt 0.723179 0.574007
vt 0.755421 0.270991
vt 0.755421 0.300862
vt 0.755421 0.002154
vt 0.755421 0.032025
vt 0.718870 0.002154
vt 0.718870 0.997846
vt 0.706542 0.997846
vt 0.706542 0.002154
vt 0.584996 0.997846
vt 0.584996 0.002154
vt 0.580687 0.002154
vt 0.580687 0.997846
s 0
f 1/1/1 2/2/1 4/3/1 3/4/1
f 9/5/2 12/6/2 8/7/2 7/8/2
f 7/9/3 8/10/3 6/11/3 5/12/3
f 13/13/4 16/14/4 2/15/4 1/16/4
f 9/17/5 7/18/5 5/19/5 14/20/5
f 12/21/1 15/22/1 24/23/1 19/24/1
f 2/15/4 16/14/4 22/25/4 17/26/4
f 12/27/6 11/28/6 16/29/6 15/30/6
f 3/31/5 10/32/5 13/33/5 1/34/5
f 10/32/5 9/17/5 14/20/5 13/33/5
f 5/35/4 6/36/4 15/37/4 14/38/4
f 14/38/4 15/37/4 16/14/4 13/13/4
f 3/39/2 4/40/2 11/41/2 10/42/2
f 10/42/2 11/41/2 12/6/2 9/5/2
f 23/43/6 18/44/6 17/45/6 22/46/6
f 20/47/6 19/48/6 24/49/6 21/50/6
f 15/37/4 6/36/4 21/51/4 24/52/4
f 8/7/2 12/6/2 19/53/2 20/54/2
f 11/41/2 4/40/2 18/55/2 23/56/2
f 16/57/3 11/58/3 23/59/3 22/60/3
f 6/11/3 8/10/3 20/61/3 21/62/3
f 4/3/1 2/2/1 17/63/1 18/64/1
